<svg width="27" height="27" viewBox="0 0 27 27" fill="none" xmlns="http://www.w3.org/2000/svg">
<circle cx="13.1556" cy="13.1556" r="13.1556" fill="#E8EFE9"/>
<path d="M20.0998 11.2047L20.0998 11.2047C19.3688 8.46407 17.0775 6.41962 14.2703 6.0082M20.0998 11.2047L14.2703 6.0082M20.0998 11.2047C20.4007 12.3353 20.4007 13.67 20.0998 14.8005L20.0998 14.8005C19.4447 17.2564 17.5175 19.1836 15.0616 19.8387L15.0616 19.8387C13.9311 20.1396 12.5963 20.1396 11.4658 19.8387L11.4658 19.8387C9.73478 19.3767 8.19691 18.2409 7.2692 16.737C6.54789 15.5759 6.20587 14.3692 6.20587 13.0026C6.20587 11.8357 6.44023 10.847 6.95298 9.83735M20.0998 11.2047L6.95298 9.83735M14.2703 6.0082C13.7089 5.92574 12.7809 5.92571 12.2287 6.00823L12.2285 6.00825C9.94977 6.35323 8.00342 7.76811 6.95298 9.83735M14.2703 6.0082L6.95298 9.83735M12.4754 5.08268L12.4754 5.08271L12.4732 5.08294C10.391 5.30636 8.50502 6.30231 7.17751 7.88416L7.17747 7.88421C6.24375 8.99475 5.66367 10.2538 5.40596 11.7317C5.34771 12.0659 5.34132 12.2259 5.34132 13.0026C5.34132 13.7793 5.34771 13.9394 5.40596 14.2736L5.40597 14.2736C5.69778 15.95 6.39866 17.336 7.55608 18.5368L7.55612 18.5369C8.74386 19.7711 10.2416 20.553 11.9927 20.8604C12.3269 20.9186 12.487 20.925 13.2637 20.925C14.2391 20.925 14.5269 20.8941 15.2898 20.6988C18.0251 19.9917 20.2527 17.7641 20.9598 15.0288C21.1552 14.2659 21.1861 13.978 21.1861 13.0026C21.1861 12.0272 21.1552 11.7393 20.9598 10.9765C20.2527 8.24423 18.025 6.01354 15.2897 5.30644C14.5858 5.12659 14.2568 5.08644 13.3881 5.0771L13.3879 5.0771C13.1692 5.07397 12.956 5.07319 12.7891 5.07436C12.6188 5.07555 12.5037 5.07881 12.4754 5.08268Z" fill="#3F7E44" stroke="#E8EFE9" stroke-width="0.15"/>
<path d="M16.0051 9.87042C15.9693 9.89183 15.9404 9.90448 15.858 9.91216C15.7699 9.92037 15.6291 9.92202 15.371 9.92202C15.2124 9.92202 15.0686 9.92358 14.9642 9.92595C14.9121 9.92713 14.8693 9.92852 14.8392 9.93004C14.8244 9.93079 14.8117 9.93162 14.8021 9.93258C14.7977 9.93303 14.7919 9.9337 14.7863 9.93481C14.7841 9.93525 14.7781 9.93648 14.7712 9.93919C14.7682 9.94038 14.7603 9.94364 14.7519 9.95025C14.7449 9.95569 14.723 9.9751 14.723 10.0095C14.723 10.0213 14.7259 10.0305 14.7265 10.0325L14.7265 10.0327C14.7276 10.0361 14.7287 10.0389 14.7294 10.0405C14.7308 10.044 14.7324 10.0472 14.7336 10.0497C14.7362 10.055 14.7396 10.0612 14.7433 10.0679C14.7508 10.0816 14.7614 10.0999 14.774 10.1215C14.7994 10.1647 14.8341 10.2223 14.8719 10.2837C14.9435 10.4001 15.0413 10.6167 15.0867 10.7559C15.0867 10.756 15.0867 10.756 15.0868 10.7561L15.1711 11.0217L15.1878 11.074H15.2426H15.5902C15.7881 11.074 15.9017 11.0848 15.9785 11.1129C16.048 11.1384 16.092 11.1799 16.1429 11.2633C16.1757 11.3181 16.1955 11.4055 16.1955 11.5C16.1955 11.5945 16.1757 11.682 16.1429 11.7368C16.092 11.8202 16.048 11.8617 15.9785 11.8872C15.9017 11.9153 15.7881 11.9261 15.5902 11.9261H15.2426H15.1871L15.1709 11.9791L15.102 12.2046L15.1019 12.2048C14.8559 13.0189 14.1779 13.6663 13.3583 13.8697L13.3582 13.8697C13.1673 13.9174 13.0217 13.9301 12.5622 13.9301H11.9954H11.8146L11.9424 14.0581L13.5425 15.6613L13.5425 15.6614C13.9839 16.1027 14.3884 16.5119 14.6848 16.8154C14.8331 16.9672 14.9542 17.0924 15.0392 17.1818C15.0818 17.2266 15.1151 17.2622 15.1382 17.2875C15.1498 17.3003 15.1585 17.31 15.1643 17.3169L15.1678 17.3212C15.1717 17.3316 15.1779 17.3555 15.1833 17.3919C15.1891 17.4312 15.1927 17.4769 15.1927 17.5184C15.1927 17.6544 15.1503 17.7576 15.0812 17.8267C15.0121 17.8958 14.9089 17.9382 14.7729 17.9382C14.7322 17.9382 14.6856 17.9339 14.644 17.9267C14.6037 17.9198 14.5751 17.9113 14.561 17.9048C14.5587 17.9029 14.5553 17.9001 14.5507 17.896C14.5408 17.8874 14.527 17.8749 14.5095 17.8586C14.4745 17.8261 14.4257 17.7796 14.3651 17.7211C14.2439 17.6042 14.0762 17.4399 13.8775 17.2439C13.4802 16.8518 12.9595 16.3332 12.4403 15.8133C11.9212 15.2934 11.4038 14.7722 11.0131 14.3751C10.8177 14.1765 10.6542 14.009 10.538 13.8883C10.4798 13.8279 10.4338 13.7794 10.4017 13.7447C10.3856 13.7273 10.3733 13.7137 10.3649 13.704C10.3613 13.6999 10.3587 13.6969 10.357 13.6947C10.3391 13.6548 10.3289 13.5765 10.334 13.4864C10.3393 13.3934 10.3594 13.3113 10.3842 13.2708L10.3843 13.2707L10.3886 13.2635C10.4213 13.2098 10.4366 13.1847 10.4601 13.1654C10.4819 13.1475 10.5174 13.1303 10.6008 13.1171C10.7641 13.0912 11.0656 13.0864 11.6847 13.0764C11.7149 13.0759 11.7458 13.0754 11.7775 13.0749L11.7763 12.9999L11.7773 13.0749C12.9341 13.0594 13.017 13.0571 13.2259 12.983C13.4962 12.8886 13.7039 12.757 13.8912 12.5566M16.0051 9.87042L13.8367 12.5052M16.0051 9.87042C16.0699 9.82976 16.1162 9.78069 16.1468 9.72175C16.1776 9.66223 16.1947 9.58853 16.1947 9.496C16.1947 9.40348 16.1776 9.32977 16.1468 9.27026C16.1162 9.21135 16.07 9.1623 16.0052 9.12166C15.989 9.11204 15.9754 9.10414 15.9251 9.09699C15.8691 9.08903 15.7742 9.08309 15.5963 9.07898C15.242 9.07078 14.5731 9.06999 13.2636 9.06999C11.9542 9.06999 11.2853 9.07078 10.931 9.07898C10.7531 9.08309 10.6581 9.08903 10.6022 9.09699C10.5516 9.10419 10.5381 9.11215 10.5217 9.12185C10.3995 9.19667 10.3314 9.3391 10.3282 9.48934C10.3251 9.63961 10.3874 9.78367 10.5082 9.86208L10.509 9.86259C10.5274 9.8749 10.5576 9.88994 10.7387 9.90062C10.9159 9.91106 11.2224 9.91731 11.7773 9.92515M16.0051 9.87042L10.483 11.9384M13.8912 12.5566C13.8913 12.5566 13.8914 12.5565 13.8915 12.5564L13.8367 12.5052M13.8912 12.5566C13.8912 12.5567 13.8911 12.5568 13.891 12.5569L13.8367 12.5052M13.8912 12.5566C13.9559 12.4885 14.0349 12.3772 14.0969 12.2769C14.1283 12.2263 14.1564 12.1768 14.177 12.135C14.1872 12.1142 14.1961 12.0942 14.2027 12.0763C14.2083 12.0608 14.2154 12.0386 14.2154 12.0167C14.2154 11.981 14.1919 11.9615 14.1853 11.9565C14.1768 11.9502 14.169 11.9471 14.1661 11.946C14.1595 11.9436 14.1538 11.9425 14.1518 11.9421C14.1468 11.9412 14.1417 11.9406 14.1381 11.9403C14.1302 11.9396 14.1197 11.939 14.1076 11.9384C14.0829 11.9373 14.0472 11.9363 14.002 11.9353C13.9114 11.9334 13.7806 11.9317 13.6197 11.9304C13.2976 11.9276 12.8536 11.9261 12.3649 11.9261C11.5046 11.9261 11.0609 11.9253 10.8194 11.9171C10.6982 11.913 10.6321 11.9071 10.5912 11.8996C10.5551 11.8929 10.5406 11.8854 10.5221 11.8744M13.8367 12.5052C13.9292 12.4077 14.0616 12.2041 14.1158 12.0891C14.1195 12.0893 14.1223 12.0895 14.1243 12.0897C14.1255 12.0898 14.126 12.0898 14.126 12.0898C14.126 12.0898 14.1254 12.0898 14.1243 12.0896L14.1243 12.0896C14.1237 12.0895 14.1207 12.0889 14.1165 12.0876C14.1316 12.0555 14.1404 12.0304 14.1404 12.0167C14.1404 12.0073 13.3419 12.0011 12.3649 12.0011C10.6458 12.0011 10.5832 11.9979 10.483 11.9384M10.5221 11.8744C10.5223 11.8745 10.5225 11.8747 10.5228 11.8748L10.483 11.9384M10.5221 11.8744C10.5218 11.8742 10.5216 11.8741 10.5213 11.8739L10.483 11.9384M10.5221 11.8744C10.4573 11.8337 10.4111 11.7847 10.3805 11.7258C10.3496 11.6663 10.3326 11.5926 10.3326 11.5C10.3326 11.4075 10.3496 11.3338 10.3805 11.2743C10.4111 11.2154 10.4573 11.1663 10.5221 11.1257C10.5406 11.1147 10.5551 11.1072 10.5912 11.1005C10.6321 11.093 10.6982 11.0871 10.8194 11.083C11.0609 11.0748 11.5046 11.074 12.3649 11.074C12.8536 11.074 13.2976 11.0725 13.6197 11.0697C13.7806 11.0684 13.9114 11.0667 14.002 11.0648C14.0472 11.0638 14.0829 11.0628 14.1076 11.0617C14.1197 11.0611 14.1302 11.0605 14.1381 11.0598C14.1417 11.0595 14.1468 11.0589 14.1518 11.058C14.1538 11.0576 14.1595 11.0565 14.1661 11.054C14.169 11.053 14.1768 11.0499 14.1853 11.0436C14.1919 11.0386 14.2154 11.0191 14.2154 10.9834C14.2154 10.9615 14.2083 10.9393 14.2027 10.9238C14.1961 10.9059 14.1872 10.8859 14.177 10.8651C14.1564 10.8233 14.1283 10.7738 14.0969 10.7231C14.0349 10.6229 13.9559 10.5116 13.8913 10.4435C13.704 10.2431 13.4962 10.1115 13.2259 10.0171C13.017 9.94296 12.9341 9.9407 11.7773 9.92515M11.7773 9.92515L11.7763 10.0001M11.7773 9.92515C11.7773 9.92515 11.7773 9.92515 11.7773 9.92515L11.7763 10.0001M11.7763 10.0001C10.6678 9.98449 10.5425 9.9751 10.4674 9.92499L13.8367 10.4949C13.6582 10.3039 13.4609 10.1786 13.201 10.0878C13.0069 10.0189 12.9411 10.0158 11.7763 10.0001ZM14.1243 10.9104C14.1223 10.9106 14.1195 10.9108 14.1158 10.911C14.1161 10.9115 14.1163 10.912 14.1165 10.9125C14.1207 10.9112 14.1237 10.9106 14.1243 10.9105L14.1243 10.9104ZM14.1243 10.9104C14.1257 10.9103 14.1262 10.9102 14.1259 10.9103C14.1258 10.9103 14.1252 10.9104 14.1243 10.9105L14.1243 10.9104Z" fill="#3F7E44" stroke="#E8EFE9" stroke-width="0.15"/>
</svg>
