<svg width="27" height="27" viewBox="0 0 27 27" fill="none" xmlns="http://www.w3.org/2000/svg">
<circle cx="13.1556" cy="13.1556" r="13.1556" fill="#E8EFE9"/>
<path d="M10.2794 4.99809C9.57561 5.19603 9.01008 5.85267 8.93468 6.56272L8.91583 6.74181L8.70533 6.88319C7.45802 7.71263 6.4495 8.92537 5.86826 10.2952C5.6012 10.9204 5.40955 11.6336 5.30901 12.3657C5.2556 12.7458 5.2556 13.8895 5.30587 14.2822C5.46611 15.4918 5.87768 16.5977 6.53433 17.5842C6.82023 18.0147 7.34178 18.6556 7.43289 18.6933C7.60569 18.7593 7.7942 18.6462 7.7942 18.4765C7.7942 18.3948 7.75964 18.3289 7.63711 18.1875C7.3889 17.8984 6.96476 17.3329 6.82023 17.0941C5.36243 14.7189 5.41269 11.6902 6.94591 9.36837L7.17212 9.02591L7.24752 9.20814C7.3512 9.46891 7.52086 9.70455 7.70937 9.84593C7.97328 10.0439 9.08235 10.7036 9.26143 10.7665C9.35254 10.801 9.55676 10.8482 9.71699 10.8733C9.87723 10.9016 10.0563 10.9393 10.1129 10.9581C10.3359 11.0273 10.5307 11.2912 10.4805 11.4545C10.4679 11.4954 10.3077 11.5928 10.0218 11.7404C9.50963 12.0044 9.4468 12.0483 9.36825 12.2023C9.26771 12.3971 8.90955 13.8046 8.90955 13.9994C8.91269 14.5115 9.45308 14.8132 9.91493 14.5555C10.0029 14.5084 10.0877 14.411 10.1977 14.2445C10.3611 13.99 10.4239 13.9429 10.5213 13.9963C10.5527 14.012 10.7538 14.3293 10.9674 14.6969C11.1811 15.0645 11.4042 15.4101 11.4607 15.4667C11.5424 15.5452 11.6901 15.608 12.1928 15.7746C12.8651 15.9976 12.9814 16.0636 13.041 16.249C13.0913 16.3998 13.063 16.5254 12.9311 16.7234C12.7771 16.9527 12.7143 17.1695 12.7363 17.3895C12.7583 17.6596 12.8494 17.8262 13.1353 18.1341C13.4306 18.4514 13.4809 18.5456 13.4809 18.7907C13.4809 19.0295 13.4243 19.1489 13.2327 19.3091C12.9971 19.5102 12.8997 19.7238 12.9028 20.0474C12.9028 20.2108 12.9217 20.3428 12.9562 20.4213C12.9876 20.4904 13.0065 20.547 13.0033 20.5501C12.9971 20.5533 12.796 20.5438 12.5541 20.5313C11.1245 20.4527 9.66673 19.9029 8.53567 19.0138C8.388 18.9007 8.32202 18.8693 8.23091 18.8693C8.09581 18.8693 7.98271 18.9792 7.98271 19.1143C7.98271 19.4002 9.46565 20.2988 10.4962 20.6412C11.3602 20.9271 12.0639 21.0371 13.0033 21.0371C14.0213 21.0371 14.8413 20.8832 15.7901 20.5187C18.4041 19.5133 20.2013 17.2449 20.6348 14.4079C20.7008 13.9586 20.7102 12.8118 20.6474 12.3657C20.3521 10.2261 19.2933 8.40069 17.6187 7.1471C17.1191 6.77322 16.9306 6.66954 16.8112 6.69468C16.695 6.71981 16.6227 6.81721 16.6227 6.94602C16.6227 7.06227 16.6699 7.1094 17.0029 7.33247C17.4396 7.62466 18.1591 8.24674 18.3193 8.46981L18.379 8.55464L18.2722 8.75572C18.1182 9.04476 18.0208 9.12645 17.7632 9.17986C17.3328 9.27097 17.1411 9.42807 16.9086 9.88363C16.7421 10.2104 16.6447 10.3423 16.5348 10.3989C16.4813 10.4272 16.2991 10.446 16.0258 10.4554C15.6833 10.468 15.5671 10.4837 15.4194 10.5403C14.9984 10.7036 14.6308 11.0618 14.4863 11.442C14.4486 11.5425 14.392 11.7593 14.3575 11.9258C14.2569 12.4254 14.2224 12.4945 13.8171 13.0349C13.3615 13.6444 13.3081 13.7512 13.3332 14.0088C13.3584 14.2759 13.4589 14.4016 13.8893 14.7126C14.2852 14.9954 14.436 15.0551 14.6717 15.0237L14.8256 15.0048L14.8476 15.1839C14.9356 15.9348 15.3566 16.7674 15.9975 17.468C16.2206 17.7131 16.4059 17.801 16.7044 17.801C16.8804 17.801 16.9589 17.7853 17.0877 17.7193C17.3862 17.5717 17.8795 16.937 18.2031 16.2867L18.4041 15.8908L18.8974 16.2678L19.3907 16.6448L19.2776 16.8522C18.8377 17.6565 18.1025 18.4985 17.3453 19.0703C16.2646 19.8841 15.0832 20.3522 13.6977 20.5156L13.55 20.5313L13.4872 20.3679C13.3364 19.9877 13.3489 19.9186 13.6223 19.6547C13.9113 19.3719 13.9679 19.2274 13.9679 18.7907C13.9679 18.4828 13.9585 18.4263 13.8862 18.2723C13.8391 18.1718 13.6977 17.9833 13.5469 17.823C13.4055 17.6722 13.2767 17.512 13.261 17.468C13.1981 17.3078 13.2044 17.2826 13.4526 16.8428C13.55 16.67 13.5594 16.6323 13.5594 16.3872C13.5594 16.1579 13.5469 16.0982 13.4746 15.9599C13.3112 15.652 13.1793 15.5703 12.4504 15.3253L11.8032 15.1116L11.401 14.4204C10.9737 13.6884 10.87 13.5627 10.6375 13.4967C10.3139 13.4056 10.0375 13.5407 9.82067 13.8895C9.67301 14.122 9.60703 14.1754 9.50963 14.1377C9.38082 14.0874 9.3871 14.0246 9.58504 13.2674C9.68872 12.8684 9.78611 12.5133 9.79868 12.4819C9.81125 12.4536 10.0406 12.3091 10.3077 12.1677C10.7098 11.951 10.8072 11.885 10.8858 11.775C11.0994 11.4734 11.0051 11.0115 10.6658 10.7005C10.471 10.5246 10.3422 10.4743 9.84267 10.3863C9.43109 10.3109 9.41852 10.3046 8.66134 9.84593C7.90102 9.38408 7.77221 9.25212 7.65282 8.83112C7.62454 8.72744 7.59626 8.61747 7.58684 8.5892C7.56799 8.52322 7.86018 8.20904 8.24662 7.876C8.56395 7.60581 8.9284 7.32933 8.94725 7.34818C8.95353 7.35446 8.98809 7.46443 9.02265 7.59324C9.17032 8.13363 9.66044 8.95679 10.0877 9.38722C10.2919 9.59144 10.3516 9.63543 10.5119 9.67941C10.9015 9.79566 11.2251 9.67313 11.555 9.28668C12.4064 8.29072 12.7928 7.16909 12.5729 6.32394L12.5195 6.11344H13.0379C13.9647 6.11658 14.7345 6.26111 15.6236 6.60671C15.9535 6.73552 16.0038 6.74495 16.0823 6.71353C16.2331 6.65069 16.2866 6.47161 16.1986 6.34279C16.0792 6.17313 15.0047 5.82125 14.1878 5.68615C13.9647 5.64845 13.6349 5.6296 13.0473 5.62332L12.221 5.61389L12.0671 5.46308C11.8817 5.28086 11.6429 5.13319 11.3884 5.03894C11.1465 4.95097 10.537 4.92897 10.2794 4.99809ZM11.3507 5.57619C11.6209 5.71129 11.8786 5.9752 12.0137 6.26111C12.1111 6.46532 12.1142 6.49046 12.1111 6.85177C12.1111 7.19109 12.1016 7.25706 12.0105 7.51784C11.8849 7.88543 11.7749 8.10222 11.5361 8.45724C11.1025 9.10446 10.8826 9.28668 10.6533 9.19243C10.4773 9.12017 9.94949 8.44153 9.72642 7.99854C9.60075 7.75033 9.46565 7.3199 9.42795 7.06227C9.33683 6.38992 9.71385 5.74585 10.3422 5.51649C10.4805 5.46308 10.5716 5.45366 10.8261 5.46308C11.1088 5.46937 11.1622 5.48193 11.3507 5.57619ZM19.0325 9.40293C19.3875 9.94333 19.7206 10.6628 19.9028 11.2912C20.1164 12.0264 20.1856 12.5008 20.1856 13.3082C20.1887 14.0937 20.1102 14.6781 19.9185 15.3316C19.8588 15.5389 19.642 16.139 19.6232 16.161C19.6169 16.1673 19.3718 15.9851 19.0733 15.7588L18.5361 15.3441L18.5549 15.0551C18.6304 13.9931 17.8637 13.104 16.8112 13.0349C16.3525 13.0066 15.9378 13.1323 15.5702 13.4119C15.2749 13.635 15.1052 13.8832 14.901 14.3827C14.8727 14.4487 14.835 14.4707 14.7062 14.499C14.5177 14.5398 14.5146 14.5367 14.1721 14.2885C13.905 14.0937 13.8265 14.0151 13.8265 13.9397C13.8265 13.9083 13.9899 13.6664 14.191 13.3993C14.6779 12.749 14.7156 12.6736 14.8476 12.0641C14.9638 11.5048 15.1429 11.2409 15.5168 11.0555C15.677 10.977 15.7367 10.9676 16.1483 10.9519C16.8427 10.9236 16.9652 10.8419 17.3202 10.1978C17.5401 9.7988 17.6344 9.71083 17.8732 9.67627C18.1999 9.63228 18.489 9.42492 18.6555 9.12331L18.7372 8.97564L18.7906 9.04476C18.822 9.08247 18.9288 9.2427 19.0325 9.40293ZM17.0155 13.5753C17.5464 13.7135 17.9454 14.1471 18.0397 14.6875C18.1559 15.3347 17.7004 16.4123 17.0092 17.1287C16.8615 17.2858 16.8364 17.2983 16.7044 17.2983C16.5222 17.2983 16.4216 17.2135 16.0918 16.7737C15.8059 16.3935 15.5639 15.9474 15.4414 15.5703C15.3691 15.3473 15.3566 15.2467 15.3534 14.9577C15.3534 14.6466 15.3629 14.5901 15.4414 14.3953C15.5514 14.1377 15.8184 13.8329 16.0509 13.7072C16.3651 13.5344 16.6887 13.4904 17.0155 13.5753Z" fill="#3F7E44"/>
<path d="M10.4837 6.00641C10.1726 6.10381 9.93071 6.45569 9.93071 6.80443C9.93071 7.52391 10.8041 7.9135 11.3288 7.42966C11.5236 7.25057 11.6053 7.0652 11.6053 6.80757C11.6053 6.68504 11.5833 6.54994 11.5519 6.47454C11.4859 6.32059 11.3068 6.12894 11.1466 6.04725C10.9832 5.96242 10.6785 5.94357 10.4837 6.00641ZM10.9769 6.54366C11.0115 6.57508 11.0586 6.64734 11.0838 6.70389C11.1215 6.79815 11.1215 6.82014 11.0712 6.92382C11.0398 6.98666 10.9675 7.0652 10.911 7.09976C10.8198 7.15003 10.7884 7.15318 10.6816 7.12176C10.4711 7.05892 10.38 6.84213 10.4805 6.64734C10.5748 6.46512 10.8261 6.4117 10.9769 6.54366Z" fill="#3F7E44"/>
<path d="M16.318 14.1399C16.0164 14.2907 15.8718 14.539 15.8687 14.8971C15.8687 15.3778 16.2017 15.7203 16.6824 15.7266C16.9243 15.7266 17.0783 15.67 17.2511 15.5161C17.4585 15.3307 17.5433 15.1202 17.5276 14.85C17.5119 14.6081 17.449 14.4573 17.2919 14.3033C17.1286 14.1399 16.9872 14.0802 16.717 14.0677C16.5128 14.0583 16.4594 14.0677 16.318 14.1399ZM16.9243 14.6709C17.006 14.7526 17.0312 14.8029 17.0312 14.894C17.0312 15.0479 16.8647 15.2239 16.717 15.2239C16.5128 15.2239 16.3745 15.0888 16.3714 14.8877C16.3714 14.784 16.3902 14.7369 16.4688 14.6615C16.607 14.5201 16.7767 14.5232 16.9243 14.6709Z" fill="#3F7E44"/>
</svg>
