<svg width="27" height="27" viewBox="0 0 27 27" fill="none" xmlns="http://www.w3.org/2000/svg">
<circle cx="13.1556" cy="13.1556" r="13.1556" fill="#E8EFE9"/>
<path d="M13.5464 5.04032C12.7993 5.19035 12.1304 5.60294 11.6585 6.19681C11.3115 6.63753 5.56653 14.9143 5.43212 15.1706C5.25396 15.5051 5.11331 15.9239 5.04454 16.3021C4.98515 16.6584 4.98515 17.3398 5.04454 17.6962C5.29772 19.1371 6.35732 20.3561 7.75137 20.8125C8.31712 20.9969 8.34838 21 11.0208 21H13.462L13.5557 20.9219C13.7402 20.7687 13.7027 20.4655 13.4839 20.3624C13.4276 20.3342 13.3651 20.3124 13.3463 20.3124C13.3276 20.3124 13.3119 20.3061 13.3119 20.2998C13.3119 20.2905 13.4901 19.9967 13.7058 19.6435L14.0996 18.9996H14.4591C14.8123 18.9996 14.8185 18.9996 14.9092 18.9089C14.9811 18.8339 14.9998 18.7901 14.9998 18.6776C14.9998 18.4745 14.8935 18.3557 14.6841 18.3213L14.5278 18.2963L14.9248 17.6462L15.3186 16.9991H15.7312C16.0719 16.9991 16.1532 16.9898 16.2063 16.9429C16.347 16.8304 16.3814 16.6616 16.297 16.499C16.2344 16.3803 16.1501 16.3365 15.9313 16.3146L15.75 16.2959L16.1469 15.6488L16.5408 14.9987H16.8408C17.0784 14.9987 17.1534 14.9862 17.2065 14.9424C17.4285 14.7643 17.3691 14.4298 17.0971 14.3392L16.9721 14.2954L17.3691 13.6484L17.766 12.9983H18.1161C18.4412 12.9983 18.4693 12.992 18.5568 12.9201C18.6756 12.8201 18.71 12.6607 18.6412 12.5201C18.5818 12.395 18.5006 12.3419 18.3286 12.3138L18.1942 12.295L18.5912 11.648L18.985 10.9978H19.2257C19.4351 10.9978 19.4758 10.9885 19.557 10.9197C19.7352 10.7697 19.7008 10.4571 19.4977 10.3665C19.4476 10.3446 19.4101 10.3165 19.4133 10.3071C19.4195 10.2946 19.5977 9.99763 19.8133 9.64443L20.2041 9.00054L20.5104 8.99742C20.8073 8.99742 20.8198 8.99429 20.9105 8.90677C21.0386 8.77549 21.0386 8.57233 20.9105 8.42854L20.8198 8.3254L19.1476 8.31602L17.4785 8.30664L17.4441 7.90968C17.3816 7.1689 17.0909 6.50938 16.5814 5.96864C16.4501 5.82798 16.0563 5.53105 15.8437 5.41227C15.5906 5.27162 15.1155 5.10283 14.8154 5.04657C14.5091 4.98718 13.8277 4.98405 13.5464 5.04032ZM14.8248 5.75922C15.8906 6.05303 16.5939 6.82195 16.7533 7.87217C16.8189 8.29727 16.7283 8.85989 16.5283 9.2506C16.422 9.46627 12.343 15.977 12.3242 15.9614C12.3211 15.9552 12.2898 15.8176 12.2555 15.6551C12.0023 14.4298 11.1021 13.4578 9.88933 13.1046C9.65803 13.0358 9.52363 13.0202 9.12354 13.0077C8.58905 12.9889 8.25461 13.0295 7.82951 13.1671L7.59196 13.2421L7.72637 13.0483C7.79826 12.9451 8.82973 11.4667 10.0144 9.76321C11.7991 7.20328 12.2117 6.62503 12.4211 6.41874C12.7806 6.05928 13.1369 5.86237 13.637 5.74359C13.9433 5.6717 14.5341 5.68108 14.8248 5.75922ZM19.3476 9.05055C19.332 9.08181 17.7785 11.623 15.8969 14.7018L12.4774 20.2967L10.6051 20.3061C9.03602 20.3124 8.68907 20.3061 8.45465 20.2655C6.25105 19.8841 5.04142 17.5024 6.04788 15.5207C6.74803 14.1391 8.40776 13.3734 9.76743 13.8047C10.2144 13.9454 10.5207 14.1329 10.8677 14.4767C11.2209 14.8205 11.449 15.23 11.5803 15.7489C11.6616 16.0771 11.6553 16.6397 11.5647 16.9804C11.3021 17.9587 10.5145 18.7151 9.53613 18.9246C9.25482 18.9839 8.75784 18.9808 8.52029 18.9183C7.82014 18.737 7.26064 18.1775 7.07935 17.4774C7.01371 17.2336 7.01371 16.7647 7.07935 16.5209C7.3044 15.6457 8.1202 15.005 8.97039 15.0362L9.21731 15.0456L9.01414 15.3519C8.90162 15.5207 8.79222 15.6614 8.77034 15.6676C8.29211 15.7833 7.97642 16.0271 7.78888 16.424C7.42318 17.1929 7.84202 18.09 8.67032 18.3025C9.07978 18.4088 9.69554 18.2869 10.0956 18.0212C10.4582 17.7806 10.7645 17.393 10.9052 16.9898C11.0021 16.721 11.024 16.1615 10.9552 15.8583C10.8677 15.4894 10.7051 15.205 10.4207 14.9206C9.8737 14.3704 9.15167 14.1923 8.32025 14.408C7.39192 14.6455 6.65114 15.3832 6.40108 16.3271C6.30419 16.6834 6.30419 17.318 6.40108 17.6712C6.75741 18.9933 7.9983 19.8247 9.36422 19.6591C10.3582 19.5372 11.2365 18.9964 11.7679 18.1744C11.8491 18.0525 11.9398 17.915 11.971 17.8681C12.1836 17.5586 17.0284 9.81634 17.1096 9.65381C17.1659 9.54128 17.244 9.34749 17.2847 9.22247L17.3566 8.99742H18.3662C19.3195 8.99742 19.3757 9.00054 19.3476 9.05055ZM9.99248 15.4801C10.0425 15.5394 10.1331 15.6832 10.1894 15.7989C10.2894 15.9989 10.2957 16.0333 10.2957 16.3271C10.2957 16.6209 10.2894 16.6522 10.1831 16.8741C10.0456 17.1585 9.8362 17.3742 9.57677 17.5024C9.36735 17.6024 9.04228 17.668 8.89224 17.6368C8.4484 17.5461 8.22335 17.0585 8.44527 16.6803C8.55155 16.499 8.72971 16.3865 8.97664 16.349C9.07353 16.3334 9.18606 16.2927 9.22044 16.2615C9.25795 16.2302 9.41423 16.0146 9.57051 15.7864C9.7268 15.5613 9.86433 15.3738 9.87683 15.3738C9.88933 15.3738 9.93934 15.4207 9.99248 15.4801Z" fill="#3F7E44"/>
</svg>
