<svg width="27" height="27" viewBox="0 0 27 27" fill="none" xmlns="http://www.w3.org/2000/svg">
<circle cx="13.1556" cy="13.1556" r="13.1556" fill="#E8EFE9"/>
<path d="M12.7978 7.05116C12.265 7.16746 11.8261 7.41883 11.4284 7.84277C10.7756 8.53683 10.5617 9.56855 10.8806 10.4877C11.0119 10.8704 11.1845 11.1368 11.5034 11.4632C12.22 12.191 13.2555 12.4273 14.2459 12.0822C14.8537 11.8683 15.3789 11.4144 15.6753 10.8366C15.9079 10.3752 15.9829 10.0338 15.9604 9.49727C15.9379 8.98329 15.8066 8.56685 15.5402 8.16542C15.1801 7.62142 14.5385 7.17872 13.9233 7.05116C13.6044 6.98363 13.1016 6.98363 12.7978 7.05116ZM13.8107 7.76398C14.1446 7.85402 14.4598 8.03786 14.7111 8.28922C15.559 9.14461 15.4014 10.5365 14.3847 11.2118C13.5256 11.7821 12.3513 11.5382 11.7698 10.6678C11.2445 9.8837 11.3909 8.81071 12.0999 8.18793C12.5727 7.77524 13.2292 7.61392 13.8107 7.76398Z" fill="#3F7E44"/>
<path d="M7.18147 9.48865C6.68249 9.61621 6.23979 9.9276 5.95091 10.3553C5.69955 10.738 5.59825 11.0719 5.59825 11.5333C5.59825 12.7264 6.49866 13.6343 7.6842 13.6343C8.30323 13.6343 8.75718 13.4504 9.18113 13.034C10.2804 11.9498 9.86769 10.0627 8.41578 9.55243C8.07813 9.43612 7.51162 9.40611 7.18147 9.48865ZM8.08938 10.2052C8.47581 10.3178 8.77219 10.5766 8.96353 10.9668C9.06857 11.1844 9.08358 11.2482 9.08358 11.5333C9.08358 11.8147 9.06857 11.8822 8.96353 12.1036C8.73092 12.5988 8.30323 12.8914 7.78549 12.914C7.41783 12.9327 7.1477 12.8539 6.88884 12.6626C6.22103 12.1599 6.11223 11.2332 6.65248 10.6329C7.03515 10.209 7.56789 10.0514 8.08938 10.2052Z" fill="#3F7E44"/>
<path d="M18.4928 9.4849C17.7762 9.66123 17.1497 10.2765 16.9621 10.9968C16.8908 11.2707 16.8908 11.7959 16.9621 12.0698C17.1497 12.7864 17.7499 13.3904 18.4665 13.578C18.5866 13.608 18.8304 13.6343 19.0068 13.6343C19.6108 13.6343 20.0647 13.4467 20.4924 13.019C20.9089 12.6026 21.1077 12.1186 21.1077 11.5221C21.1077 10.5654 20.4512 9.72876 19.5132 9.48865C19.2506 9.42112 18.7667 9.42112 18.4928 9.4849ZM19.592 10.2765C19.8734 10.4153 20.1248 10.6667 20.2673 10.9518C20.3649 11.1544 20.3761 11.2144 20.3761 11.5333C20.3761 11.8597 20.3649 11.9122 20.2561 12.1373C20.1098 12.4337 19.8734 12.6626 19.577 12.8014C19.3894 12.8914 19.3182 12.9027 18.988 12.9027C18.6504 12.9027 18.5941 12.8914 18.414 12.7976C18.1326 12.6476 17.9113 12.4337 17.765 12.1636C17.6449 11.9385 17.6374 11.9085 17.6374 11.5521C17.6374 11.2257 17.6487 11.1507 17.7349 10.9706C17.9075 10.6029 18.1889 10.3478 18.5678 10.2127C18.8642 10.1077 19.3032 10.1339 19.592 10.2765Z" fill="#3F7E44"/>
<path d="M10.678 12.6929C10.1941 12.8505 9.76261 13.1581 9.47373 13.5558C9.31991 13.7659 9.2974 13.7809 9.15859 13.7809C9.03853 13.7847 8.956 13.8222 8.7459 13.976C8.43076 14.2049 8.23942 14.2949 7.92428 14.3512C7.49659 14.43 7.05388 14.2987 6.60368 13.9573C6.37483 13.7884 6.36732 13.7847 6.0897 13.7847C5.30934 13.7847 4.67906 14.2499 4.27763 15.1165C4.08629 15.533 4 15.9382 4 16.4484C4 16.9399 4.05628 17.2137 4.22885 17.5589C4.4427 17.9903 4.88915 18.3392 5.35061 18.4368C5.50068 18.4668 6.16848 18.4743 7.82674 18.4593C9.07605 18.448 10.1715 18.4443 10.2653 18.4443C10.4867 18.4518 16.1968 18.4518 16.4181 18.4443C16.5119 18.4443 17.6074 18.448 18.8567 18.4593C20.53 18.4743 21.179 18.4668 21.3329 18.433C21.9631 18.298 22.4546 17.7877 22.6309 17.0862C22.6797 16.8948 22.6872 16.7335 22.6722 16.3358C22.6497 15.7468 22.5934 15.5105 22.3646 15.0415C22.1695 14.6438 21.9519 14.3662 21.648 14.1373C21.3329 13.901 21.0852 13.8147 20.6688 13.7922L20.3237 13.7772L20.0873 13.9535C19.3445 14.5163 18.6429 14.5163 17.9001 13.9535C17.7275 13.8222 17.6449 13.7847 17.5361 13.7847C17.4123 13.7847 17.3823 13.7622 17.2247 13.5596C16.9059 13.1431 16.4481 12.8242 15.9717 12.6817C15.8479 12.6442 15.6303 12.6216 15.4239 12.6216H15.0825L14.8011 12.8317C14.4898 13.0643 14.0846 13.2744 13.8295 13.3307C13.5856 13.387 13.0566 13.3795 12.8165 13.3157C12.5276 13.2407 12.205 13.0719 11.8823 12.8317L11.6009 12.6216L11.2445 12.6254C11.0082 12.6254 10.8131 12.6479 10.678 12.6929ZM11.5222 13.4658C11.8035 13.6759 12.1562 13.8597 12.4976 13.976C12.7302 14.0548 12.8278 14.0661 13.3417 14.0661C13.8482 14.0661 13.957 14.0548 14.1821 13.9798C14.5273 13.8635 14.7674 13.7397 15.105 13.5033L15.3902 13.3045L15.5928 13.3382C16.3769 13.462 17.0709 14.3287 17.2623 15.4167C17.4011 16.2195 17.2548 16.9136 16.8533 17.3413C16.6807 17.5251 16.3694 17.6977 16.1217 17.7465L16.0054 17.769V16.8648C16.0054 15.8631 15.9904 15.7843 15.7841 15.698C15.6378 15.638 15.4614 15.6793 15.3677 15.7993C15.2964 15.8894 15.2926 15.9494 15.2926 16.8273V17.7615H13.3417H11.3909V16.8273C11.3909 15.9494 11.3871 15.8894 11.3158 15.7993C11.222 15.6793 11.0457 15.638 10.8994 15.698C10.693 15.7843 10.678 15.8631 10.678 16.8648V17.769L10.558 17.7465C10.1941 17.6752 9.79263 17.3788 9.62005 17.0599C9.43997 16.726 9.38369 16.4709 9.38744 15.9607C9.39495 14.565 10.2016 13.4133 11.2595 13.3007C11.2821 13.297 11.3984 13.372 11.5222 13.4658ZM6.33731 14.6551C7.02012 15.1203 7.79672 15.2103 8.55081 14.9177L8.82469 14.8126L8.75716 15.094C8.55457 15.9457 8.67837 16.9361 9.0648 17.5289L9.21486 17.7615H7.73294H6.25102V17.0487C6.25102 16.3396 6.25102 16.3321 6.15723 16.242C6.09345 16.1783 6.02592 16.1482 5.93213 16.1482C5.59447 16.1482 5.5382 16.2833 5.5382 17.1049C5.5382 17.7952 5.54195 17.784 5.27933 17.6527C5.09925 17.5589 4.91542 17.3525 4.81412 17.1274C4.69406 16.8573 4.67906 16.2158 4.78786 15.8256C4.94168 15.2591 5.28683 14.7751 5.662 14.595C5.94338 14.46 6.06344 14.4675 6.33731 14.6551ZM21.014 14.5913C21.3966 14.7751 21.7418 15.2553 21.8956 15.8256C22.0044 16.2158 21.9894 16.8573 21.8694 17.1274C21.7681 17.3525 21.5842 17.5589 21.4041 17.6527C21.1415 17.784 21.1453 17.7952 21.1453 17.1049C21.1453 16.2833 21.089 16.1482 20.7513 16.1482C20.6576 16.1482 20.59 16.1783 20.5262 16.242C20.4325 16.3321 20.4325 16.3396 20.4325 17.0487V17.7615H18.9505H17.4649L17.5812 17.5927C17.8325 17.2287 17.9863 16.741 18.0201 16.1858C18.0426 15.8444 17.9826 15.2403 17.9001 14.9627L17.8513 14.8051L18.0276 14.8802C18.808 15.2216 19.6746 15.1315 20.3762 14.6363C20.605 14.4712 20.7401 14.4637 21.014 14.5913Z" fill="#3F7E44"/>
</svg>
